<svg width="32" height="32" viewBox="0 0 32 32" fill="none" xmlns="http://www.w3.org/2000/svg">
<path d="M16 29.3327C8.63624 29.3327 2.66671 23.3631 2.66671 15.9993C2.66671 8.63555 8.63624 2.66602 16 2.66602C23.3638 2.66602 29.3334 8.63555 29.3334 15.9993C29.3334 23.3631 23.3638 29.3327 16 29.3327Z" stroke="#0EA5E9" stroke-width="2" stroke-linecap="round" stroke-linejoin="round"/>
<path d="M22 19.334C22 19.334 20 22.0007 16 22.0007C12 22.0007 10 19.334 10 19.334" stroke="#0EA5E9" stroke-width="2" stroke-linecap="round" stroke-linejoin="round"/>
<path d="M20.6667 11.9993C20.2985 11.9993 20 11.7009 20 11.3327C20 10.9645 20.2985 10.666 20.6667 10.666C21.0349 10.666 21.3334 10.9645 21.3334 11.3327C21.3334 11.7009 21.0349 11.9993 20.6667 11.9993Z" fill="#0EA5E9" stroke="#0EA5E9" stroke-width="2" stroke-linecap="round" stroke-linejoin="round"/>
<path d="M11.3333 11.9993C10.9651 11.9993 10.6667 11.7009 10.6667 11.3327C10.6667 10.9645 10.9651 10.666 11.3333 10.666C11.7015 10.666 12 10.9645 12 11.3327C12 11.7009 11.7015 11.9993 11.3333 11.9993Z" fill="#0EA5E9" stroke="#0EA5E9" stroke-width="2" stroke-linecap="round" stroke-linejoin="round"/>
</svg>
