<svg width="58" height="58" viewBox="0 0 58 58" fill="none" xmlns="http://www.w3.org/2000/svg">
  <path d="M29.0001 29.0004C24.2001 22.5924 19.4001 19.4004 14.6001 19.4004C12.054 19.4004 9.61219 20.4118 7.81184 22.2122C6.01149 24.0125 5.00006 26.4543 5.00006 29.0004C5.00006 31.5465 6.01149 33.9883 7.81184 35.7886C9.61219 37.589 12.054 38.6004 14.6001 38.6004C19.4001 38.6004 24.2001 35.4084 29.0001 29.0004ZM29.0001 29.0004C33.8001 35.4084 38.6001 38.6004 43.4001 38.6004C45.9461 38.6004 48.3879 37.589 50.1883 35.7886C51.9886 33.9883 53.0001 31.5465 53.0001 29.0004C53.0001 26.4543 51.9886 24.0125 50.1883 22.2122C48.3879 20.4118 45.9461 19.4004 43.4001 19.4004C38.6001 19.4004 33.8001 22.5924 29.0001 29.0004Z" stroke="white" stroke-width="4.8" stroke-linecap="round" stroke-linejoin="round"/>
</svg>
