<svg width="32" height="32" viewBox="0 0 32 32" fill="none" xmlns="http://www.w3.org/2000/svg">
<path d="M21.3334 28V25.3333C21.3334 23.9188 20.7714 22.5623 19.7713 21.5621C18.7711 20.5619 17.4145 20 16 20H8.00002C6.58553 20 5.22898 20.5619 4.22878 21.5621C3.22859 22.5623 2.66669 23.9188 2.66669 25.3333V28" stroke="#0EA5E9" stroke-width="2.66667" stroke-linecap="round" stroke-linejoin="round"/>
<path d="M12 14.6667C14.9455 14.6667 17.3334 12.2789 17.3334 9.33333C17.3334 6.38781 14.9455 4 12 4C9.0545 4 6.66669 6.38781 6.66669 9.33333C6.66669 12.2789 9.0545 14.6667 12 14.6667Z" stroke="#0EA5E9" stroke-width="2.66667" stroke-linecap="round" stroke-linejoin="round"/>
<path d="M29.3333 28.0005V25.3338C29.3324 24.1521 28.9391 23.0042 28.2151 22.0702C27.4911 21.1363 26.4775 20.4693 25.3333 20.1738" stroke="#0EA5E9" stroke-width="2.66667" stroke-linecap="round" stroke-linejoin="round"/>
<path d="M21.3333 4.17383C22.4805 4.46756 23.4974 5.13476 24.2235 6.07024C24.9496 7.00572 25.3438 8.15627 25.3438 9.34049C25.3438 10.5247 24.9496 11.6753 24.2235 12.6107C23.4974 13.5462 22.4805 14.2134 21.3333 14.5072" stroke="#0EA5E9" stroke-width="2.66667" stroke-linecap="round" stroke-linejoin="round"/>
</svg>
